<svg xmlns="http://www.w3.org/2000/svg" viewBox="0 0 1200 675"><defs><linearGradient id="bg-aura-atelier" x1="0" y1="0" x2="1" y2="1"><stop offset="0%" stop-color="#050816"/><stop offset="100%" stop-color="#0F172A"/></linearGradient><radialGradient id="glow1-aura-atelier" cx="50%" cy="50%" r="50%"><stop offset="0%" stop-color="#D4AF37" stop-opacity="0.55"/><stop offset="100%" stop-color="#D4AF37" stop-opacity="0"/></radialGradient><radialGradient id="glow2-aura-atelier" cx="50%" cy="50%" r="50%"><stop offset="0%" stop-color="#8B5CF6" stop-opacity="0.45"/><stop offset="100%" stop-color="#8B5CF6" stop-opacity="0"/></radialGradient><radialGradient id="glow3-aura-atelier" cx="50%" cy="50%" r="50%"><stop offset="0%" stop-color="#D4AF37" stop-opacity="0.35"/><stop offset="100%" stop-color="#D4AF37" stop-opacity="0"/></radialGradient><linearGradient id="floor-aura-atelier" x1="0" y1="0" x2="0" y2="1"><stop offset="0%" stop-color="#D4AF37" stop-opacity="0"/><stop offset="55%" stop-color="#D4AF37" stop-opacity="0.1"/><stop offset="100%" stop-color="#D4AF37" stop-opacity="0"/></linearGradient><pattern id="grid-aura-atelier" width="42" height="42" patternUnits="userSpaceOnUse"><path d="M 42 0 L 0 0 0 42" fill="none" stroke="#38BDF8" stroke-opacity="0.06" stroke-width="1"/></pattern><filter id="blur-aura-atelier" x="-50%" y="-50%" width="200%" height="200%"><feGaussianBlur stdDeviation="60"/></filter><filter id="softglow-aura-atelier" x="-80%" y="-80%" width="260%" height="260%"><feGaussianBlur stdDeviation="10" result="blur"/><feMerge><feMergeNode in="blur"/><feMergeNode in="SourceGraphic"/></feMerge></filter></defs><rect width="1200" height="675" fill="url(#bg-aura-atelier)"/><rect width="1200" height="675" fill="url(#grid-aura-atelier)"/><circle cx="264.0" cy="189.00000000000003" r="260" fill="url(#glow1-aura-atelier)" filter="url(#blur-aura-atelier)"/><circle cx="983.9999999999999" cy="472.49999999999994" r="240" fill="url(#glow2-aura-atelier)" filter="url(#blur-aura-atelier)"/><circle cx="660.0" cy="101.25" r="180" fill="url(#glow3-aura-atelier)" filter="url(#blur-aura-atelier)"/><rect x="0" y="337.5" width="1200" height="337.5" fill="url(#floor-aura-atelier)"/><g filter="url(#softglow-aura-atelier)"><rect x="430" y="190" width="340" height="380" rx="30" fill="white" fill-opacity="0.05" stroke="#D4AF37" stroke-opacity="0.25" stroke-width="1.5"/><path d="M 600 230 L 640 260 L 640 300 L 560 300 L 560 260 Z" fill="none" stroke="#D4AF37" stroke-width="2.5"/><path d="M 540 320 Q 600 300 660 320 L 680 480 Q 600 510 520 480 Z" fill="#D4AF37" fill-opacity="0.1" stroke="#D4AF37" stroke-width="2.5"/><line x1="600" y1="230" x2="600" y2="205" stroke="#D4AF37" stroke-width="2"/><path d="M 570 205 Q 600 185 630 205" fill="none" stroke="#D4AF37" stroke-width="2.5" stroke-linecap="round"/><circle cx="600" cy="205" r="4" fill="#D4AF37"/></g><g stroke="#D4AF37" stroke-opacity="0.4" stroke-width="1.5" fill="none"><circle cx="330" cy="340" r="3" fill="#D4AF37"/><circle cx="900" cy="260" r="3" fill="#D4AF37"/><circle cx="860" cy="480" r="3" fill="#D4AF37"/><path d="M 330 340 L 330 380" stroke-dasharray="3 5"/></g><rect width="1200" height="675" fill="#050816" opacity="0.06"/></svg>