<svg xmlns="http://www.w3.org/2000/svg" viewBox="0 0 1200 675"><defs><linearGradient id="bg-chrono-velosec" x1="0" y1="0" x2="1" y2="1"><stop offset="0%" stop-color="#050816"/><stop offset="100%" stop-color="#0F172A"/></linearGradient><radialGradient id="glow1-chrono-velosec" cx="50%" cy="50%" r="50%"><stop offset="0%" stop-color="#22D3EE" stop-opacity="0.55"/><stop offset="100%" stop-color="#22D3EE" stop-opacity="0"/></radialGradient><radialGradient id="glow2-chrono-velosec" cx="50%" cy="50%" r="50%"><stop offset="0%" stop-color="#38BDF8" stop-opacity="0.45"/><stop offset="100%" stop-color="#38BDF8" stop-opacity="0"/></radialGradient><radialGradient id="glow3-chrono-velosec" cx="50%" cy="50%" r="50%"><stop offset="0%" stop-color="#22D3EE" stop-opacity="0.35"/><stop offset="100%" stop-color="#22D3EE" stop-opacity="0"/></radialGradient><linearGradient id="floor-chrono-velosec" x1="0" y1="0" x2="0" y2="1"><stop offset="0%" stop-color="#22D3EE" stop-opacity="0"/><stop offset="55%" stop-color="#22D3EE" stop-opacity="0.1"/><stop offset="100%" stop-color="#22D3EE" stop-opacity="0"/></linearGradient><pattern id="grid-chrono-velosec" width="42" height="42" patternUnits="userSpaceOnUse"><path d="M 42 0 L 0 0 0 42" fill="none" stroke="#38BDF8" stroke-opacity="0.06" stroke-width="1"/></pattern><filter id="blur-chrono-velosec" x="-50%" y="-50%" width="200%" height="200%"><feGaussianBlur stdDeviation="60"/></filter><filter id="softglow-chrono-velosec" x="-80%" y="-80%" width="260%" height="260%"><feGaussianBlur stdDeviation="10" result="blur"/><feMerge><feMergeNode in="blur"/><feMergeNode in="SourceGraphic"/></feMerge></filter></defs><rect width="1200" height="675" fill="url(#bg-chrono-velosec)"/><rect width="1200" height="675" fill="url(#grid-chrono-velosec)"/><circle cx="264.0" cy="189.00000000000003" r="260" fill="url(#glow1-chrono-velosec)" filter="url(#blur-chrono-velosec)"/><circle cx="983.9999999999999" cy="472.49999999999994" r="240" fill="url(#glow2-chrono-velosec)" filter="url(#blur-chrono-velosec)"/><circle cx="660.0" cy="101.25" r="180" fill="url(#glow3-chrono-velosec)" filter="url(#blur-chrono-velosec)"/><rect x="0" y="337.5" width="1200" height="337.5" fill="url(#floor-chrono-velosec)"/><g filter="url(#softglow-chrono-velosec)"><rect x="360" y="210" width="480" height="300" rx="24" fill="white" fill-opacity="0.06" stroke="#94A3B8" stroke-opacity="0.18" stroke-width="1.5"/><circle cx="530" cy="380" r="90" fill="none" stroke="#22D3EE" stroke-width="4"/><line x1="530" y1="380" x2="530" y2="320" stroke="#22D3EE" stroke-width="3" stroke-linecap="round"/><line x1="530" y1="380" x2="570" y2="380" stroke="#22D3EE" stroke-width="3" stroke-linecap="round"/><rect x="510" y="270" width="40" height="16" rx="6" fill="#22D3EE" fill-opacity="0.4"/><line x1="490" y1="255" x2="505" y2="270" stroke="#22D3EE" stroke-width="3" stroke-linecap="round"/><path d="M 730 300 L 780 315 L 780 370 Q 780 420 730 445 Q 680 420 680 370 L 680 315 Z" fill="#38BDF8" fill-opacity="0.14" stroke="#38BDF8" stroke-width="2.5"/><path d="M 712 372 L 726 386 L 752 356" fill="none" stroke="#38BDF8" stroke-width="3" stroke-linecap="round" stroke-linejoin="round"/></g><rect width="1200" height="675" fill="#050816" opacity="0.06"/></svg>