<svg xmlns="http://www.w3.org/2000/svg" viewBox="0 0 1200 675"><defs><linearGradient id="bg-finova-ai" x1="0" y1="0" x2="1" y2="1"><stop offset="0%" stop-color="#050816"/><stop offset="100%" stop-color="#0F172A"/></linearGradient><radialGradient id="glow1-finova-ai" cx="50%" cy="50%" r="50%"><stop offset="0%" stop-color="#38BDF8" stop-opacity="0.55"/><stop offset="100%" stop-color="#38BDF8" stop-opacity="0"/></radialGradient><radialGradient id="glow2-finova-ai" cx="50%" cy="50%" r="50%"><stop offset="0%" stop-color="#22D3EE" stop-opacity="0.45"/><stop offset="100%" stop-color="#22D3EE" stop-opacity="0"/></radialGradient><radialGradient id="glow3-finova-ai" cx="50%" cy="50%" r="50%"><stop offset="0%" stop-color="#8B5CF6" stop-opacity="0.35"/><stop offset="100%" stop-color="#8B5CF6" stop-opacity="0"/></radialGradient><linearGradient id="floor-finova-ai" x1="0" y1="0" x2="0" y2="1"><stop offset="0%" stop-color="#38BDF8" stop-opacity="0"/><stop offset="55%" stop-color="#38BDF8" stop-opacity="0.1"/><stop offset="100%" stop-color="#38BDF8" stop-opacity="0"/></linearGradient><pattern id="grid-finova-ai" width="42" height="42" patternUnits="userSpaceOnUse"><path d="M 42 0 L 0 0 0 42" fill="none" stroke="#38BDF8" stroke-opacity="0.06" stroke-width="1"/></pattern><filter id="blur-finova-ai" x="-50%" y="-50%" width="200%" height="200%"><feGaussianBlur stdDeviation="60"/></filter><filter id="softglow-finova-ai" x="-80%" y="-80%" width="260%" height="260%"><feGaussianBlur stdDeviation="10" result="blur"/><feMerge><feMergeNode in="blur"/><feMergeNode in="SourceGraphic"/></feMerge></filter></defs><rect width="1200" height="675" fill="url(#bg-finova-ai)"/><rect width="1200" height="675" fill="url(#grid-finova-ai)"/><circle cx="264.0" cy="189.00000000000003" r="260" fill="url(#glow1-finova-ai)" filter="url(#blur-finova-ai)"/><circle cx="983.9999999999999" cy="472.49999999999994" r="240" fill="url(#glow2-finova-ai)" filter="url(#blur-finova-ai)"/><circle cx="660.0" cy="101.25" r="180" fill="url(#glow3-finova-ai)" filter="url(#blur-finova-ai)"/><rect x="0" y="337.5" width="1200" height="337.5" fill="url(#floor-finova-ai)"/><g filter="url(#softglow-finova-ai)"><rect x="380" y="220" width="440" height="300" rx="24" fill="white" fill-opacity="0.06" stroke="#94A3B8" stroke-opacity="0.18" stroke-width="1.5"/><g fill="#38BDF8" fill-opacity="0.25" stroke="#38BDF8" stroke-width="1.5"><rect x="420" y="420" width="46" height="60"/><rect x="490" y="380" width="46" height="100"/><rect x="560" y="340" width="46" height="140"/><rect x="630" y="300" width="46" height="180"/><rect x="700" y="260" width="46" height="220"/></g><path d="M 420 440 L 490 400 L 560 360 L 630 310 L 746 250" fill="none" stroke="#22D3EE" stroke-width="3" stroke-linecap="round"/><circle cx="746" cy="250" r="7" fill="#22D3EE"/></g><rect width="1200" height="675" fill="#050816" opacity="0.06"/></svg>