<svg xmlns="http://www.w3.org/2000/svg" viewBox="0 0 1200 675"><defs><linearGradient id="bg-fitnova-ai" x1="0" y1="0" x2="1" y2="1"><stop offset="0%" stop-color="#050816"/><stop offset="100%" stop-color="#0F172A"/></linearGradient><radialGradient id="glow1-fitnova-ai" cx="50%" cy="50%" r="50%"><stop offset="0%" stop-color="#38BDF8" stop-opacity="0.55"/><stop offset="100%" stop-color="#38BDF8" stop-opacity="0"/></radialGradient><radialGradient id="glow2-fitnova-ai" cx="50%" cy="50%" r="50%"><stop offset="0%" stop-color="#22D3EE" stop-opacity="0.45"/><stop offset="100%" stop-color="#22D3EE" stop-opacity="0"/></radialGradient><radialGradient id="glow3-fitnova-ai" cx="50%" cy="50%" r="50%"><stop offset="0%" stop-color="#38BDF8" stop-opacity="0.35"/><stop offset="100%" stop-color="#38BDF8" stop-opacity="0"/></radialGradient><linearGradient id="floor-fitnova-ai" x1="0" y1="0" x2="0" y2="1"><stop offset="0%" stop-color="#38BDF8" stop-opacity="0"/><stop offset="55%" stop-color="#38BDF8" stop-opacity="0.1"/><stop offset="100%" stop-color="#38BDF8" stop-opacity="0"/></linearGradient><pattern id="grid-fitnova-ai" width="42" height="42" patternUnits="userSpaceOnUse"><path d="M 42 0 L 0 0 0 42" fill="none" stroke="#38BDF8" stroke-opacity="0.06" stroke-width="1"/></pattern><filter id="blur-fitnova-ai" x="-50%" y="-50%" width="200%" height="200%"><feGaussianBlur stdDeviation="60"/></filter><filter id="softglow-fitnova-ai" x="-80%" y="-80%" width="260%" height="260%"><feGaussianBlur stdDeviation="10" result="blur"/><feMerge><feMergeNode in="blur"/><feMergeNode in="SourceGraphic"/></feMerge></filter></defs><rect width="1200" height="675" fill="url(#bg-fitnova-ai)"/><rect width="1200" height="675" fill="url(#grid-fitnova-ai)"/><circle cx="264.0" cy="189.00000000000003" r="260" fill="url(#glow1-fitnova-ai)" filter="url(#blur-fitnova-ai)"/><circle cx="983.9999999999999" cy="472.49999999999994" r="240" fill="url(#glow2-fitnova-ai)" filter="url(#blur-fitnova-ai)"/><circle cx="660.0" cy="101.25" r="180" fill="url(#glow3-fitnova-ai)" filter="url(#blur-fitnova-ai)"/><rect x="0" y="337.5" width="1200" height="337.5" fill="url(#floor-fitnova-ai)"/><g filter="url(#softglow-fitnova-ai)"><rect x="360" y="260" width="480" height="220" rx="24" fill="white" fill-opacity="0.06" stroke="#94A3B8" stroke-opacity="0.18" stroke-width="1.5"/><circle cx="470" cy="370" r="46" fill="none" stroke="#38BDF8" stroke-width="6"/><circle cx="730" cy="370" r="46" fill="none" stroke="#38BDF8" stroke-width="6"/><rect x="500" y="358" width="200" height="24" rx="8" fill="#38BDF8" fill-opacity="0.25" stroke="#38BDF8" stroke-width="2.5"/><path d="M 400 470 L 460 470 L 490 430 L 520 500 L 550 450 L 580 470 L 800 470" fill="none" stroke="#22D3EE" stroke-width="3" stroke-linecap="round" stroke-linejoin="round"/></g><rect width="1200" height="675" fill="#050816" opacity="0.06"/></svg>